PathFileType	4	(X/Y/Z)	..\data\2014030\dynamic\2014030_C4_03.trc
DataRate	CameraRate	NumFrames	NumMarkers	Units	OrigDataRate	OrigDataStartFrame	OrigNumFrames
100.000000	100.000000	4	52	mm	100.000000	87	174
Frame#	Time	L_IAS			L_IPS			R_IPS			R_IAS			L_FTC			L_FLE			L_FME			L_FAX			L_TTC			L_FAL			L_TAM			L_FCC			L_FM1			L_FM2			L_FM5			R_FTC			R_FLE			R_FME			R_FAX			R_TTC			R_FAL			R_TAM			R_FCC			R_FM1			R_FM2			R_FM5			CV7			TV10			SXS			SJN			L_SIA			L_SRS			L_SAA			L_SAE			L_HLE			L_HME			L_UOA			L_RSP			L_UHE			L_HM2			L_HM5			R_SIA			R_SRS			R_SAA			R_SAE			R_HLE			R_HME			R_UOA			R_RSP			R_UHE			R_HM2			R_HM5			
		X1	Y1	Z1	X2	Y2	Z2	X3	Y3	Z3	X4	Y4	Z4	X5	Y5	Z5	X6	Y6	Z6	X7	Y7	Z7	X8	Y8	Z8	X9	Y9	Z9	X10	Y10	Z10	X11	Y11	Z11	X12	Y12	Z12	X13	Y13	Z13	X14	Y14	Z14	X15	Y15	Z15	X16	Y16	Z16	X17	Y17	Z17	X18	Y18	Z18	X19	Y19	Z19	X20	Y20	Z20	X21	Y21	Z21	X22	Y22	Z22	X23	Y23	Z23	X24	Y24	Z24	X25	Y25	Z25	X26	Y26	Z26	X27	Y27	Z27	X28	Y28	Z28	X29	Y29	Z29	X30	Y30	Z30	X31	Y31	Z31	X32	Y32	Z32	X33	Y33	Z33	X34	Y34	Z34	X35	Y35	Z35	X36	Y36	Z36	X37	Y37	Z37	X38	Y38	Z38	X39	Y39	Z39	X40	Y40	Z40	X41	Y41	Z41	X42	Y42	Z42	X43	Y43	Z43	X44	Y44	Z44	X45	Y45	Z45	X46	Y46	Z46	X47	Y47	Z47	X48	Y48	Z48	X49	Y49	Z49	X50	Y50	Z50	X51	Y51	Z51	X52	Y52	Z52	

88	0.87	860.2054443359377	933.383972167969	-393.8370361328126	656.7619628906251	977.8735351562502	-327.9162597656251	653.4905395507814	977.296081542969	-213.4464263916016	854.0487060546877	938.2592773437502	-138.2191314697266	789.3875732421877	865.9095458984377	-444.1630249023439	797.911315917969	462.3487243652345	-367.4398498535157	781.174743652344	463.9864196777345	-246.5527648925782	786.6601562500002	399.8496398925782	-365.6145629882813	833.4766235351565	406.1932678222657	-298.3861389160157	737.4473876953126	67.15921783447267	-336.1423339843751	736.6210327148439	82.88082122802736	-245.4615173339844	683.4813842773439	23.75392532348633	-302.7931823730469	864.058532714844	17.84869384765625	-230.6099243164063	882.5541992187502	32.85517883300782	-288.1852111816407	850.2622680664065	16.14348793029786	-347.8902282714844	773.3523559570315	855.9567871093752	-86.73488616943361	907.6804199218752	488.4981994628907	-126.5901260375977	995.6459960937502	469.989227294922	-244.5734252929688	881.263854980469	445.5483703613282	-122.7094497680664	939.7869262695315	413.2283630371095	-169.7335052490235	677.4986572265626	177.8613739013672	-140.49609375	708.5674438476564	168.5552673339844	-225.3650207519532	615.0487060546876	156.3060150146485	-193.856918334961	761.0719604492189	48.86291885375978	-197.3152923583985	766.0460815429689	65.37318420410158	-142.597885131836	713.5611572265626	69.27115631103517	-101.4824142456055	724.1028442382814	1432.935180664063	-262.1983642578126	660.2738037109376	1201.699951171875	-290.9496459960938	897.9118652343752	1127.596801757813	-271.9013061523438	855.0168457031252	1347.49609375	-273.5112609863282	659.5161132812501	1232.287475585938	-382.3454895019532	688.5048217773439	1365.833862304688	-385.0161437988282	741.1856689453126	1371.890991210938	-449.985321044922	799.0568847656252	1381.3681640625	-463.2000122070314	778.3969726562502	1065.519653320313	-535.1975708007814	724.5862426757814	1062.856079101563	-482.024627685547	740.2616577148439	1039.163330078125	-518.2934570312501	867.5088500976565	843.1267700195315	-463.5803833007814	840.3568115234377	842.3145751953127	-532.1000366210939	896.1604003906252	759.2128906250001	-457.3587036132814	839.1140136718752	772.5065917968752	-542.9890747070314	646.8597412109376	1224.061279296875	-199.7633666992188	683.5791625976564	1346.197631835938	-168.5411071777344	723.4721679687501	1346.35302734375	-112.1293029785157	774.1651000976565	1352.477294921875	-87.6456756591797	730.3021850585939	1034.449829101563	-24.1250400543213	699.8106689453126	1021.496337890625	-98.7847595214844	697.5843505859376	1002.8955078125	-54.73738861083986	826.0581054687502	808.470642089844	-68.62749481201173	774.5373535156252	800.883483886719	-9.502926826477053	868.257995605469	732.0086669921876	-61.77904891967775	791.1836547851565	730.5156250000001	-0.04566048085689545	
89	0.88	869.515075683594	933.5501708984377	-394.3853454589845	666.1551513671876	978.1157836914065	-328.0207519531251	662.7681884765626	977.7727050781252	-213.5907440185547	863.877624511719	939.200866699219	-138.9008941650391	798.218688964844	865.7419433593752	-444.5726928710939	801.5140380859377	462.1628723144532	-367.5588684082032	784.6097412109377	463.4327697753907	-246.7020111083985	789.621765136719	399.7798767089845	-365.7594299316407	836.5528564453127	405.7255859375001	-298.5440368652344	737.8402099609376	67.40951538085939	-336.3040161132813	737.0545043945314	83.3530731201172	-245.5279541015626	683.5698852539064	24.29364776611329	-302.8735351562501	864.2126464843752	17.95102691650391	-230.6512756347657	882.6938476562502	32.79021072387696	-288.1193542480469	850.3584594726565	16.12302780151368	-347.9387512207032	783.6424560546877	856.6358032226565	-86.83293914794923	923.538269042969	491.2036743164064	-127.8800888061524	1012.367065429688	472.4440307617189	-245.3368377685547	898.5888671875002	447.0736694335939	-124.0224151611328	958.025817871094	416.6922607421876	-171.0794067382813	705.8967285156251	170.1304626464844	-141.2650604248047	737.0659790039064	162.647689819336	-226.5436096191407	643.8013916015626	145.7015075683594	-194.3483123779297	796.145446777344	46.3354721069336	-198.7967681884766	800.2951660156252	63.07485961914064	-144.091537475586	747.7796020507814	63.58548736572267	-102.7805709838867	733.6657104492189	1433.166748046875	-263.0735778808594	669.9974975585939	1201.955444335938	-292.1850585937501	907.4305419921877	1127.93408203125	-272.1883850097657	864.651062011719	1347.739379882813	-273.8854675292969	669.7085571289064	1232.666870117188	-383.7778015136719	698.6309204101564	1366.201538085938	-386.1078491210939	752.0580444335939	1372.18701171875	-450.6421813964845	809.5733032226565	1381.884399414063	-463.6417236328126	791.9664306640627	1066.110229492188	-536.7488403320314	737.9621582031251	1062.695556640625	-483.7551574707032	754.1672973632814	1039.181640625	-520.0255126953126	884.278015136719	845.1743164062502	-464.7893981933595	857.195251464844	843.8150634765627	-533.3432617187501	914.4957275390627	761.8907470703126	-458.5362854003907	857.3156738281252	773.9665527343752	-544.1834716796876	656.1323852539064	1224.203857421875	-201.2738037109376	692.6362915039064	1346.343627929688	-169.7725524902344	732.2557373046876	1346.490112304688	-113.1771011352539	782.6522216796877	1352.68701171875	-88.38825988769533	736.0508422851564	1035.043823242188	-25.3623390197754	706.2479248046876	1022.372131347656	-100.233154296875	703.4129028320314	1003.848510742188	-56.11835861206056	829.8238525390627	807.909851074219	-68.5352249145508	777.4722290039065	800.9996337890627	-9.857187271118166	870.8611450195315	730.9229125976564	-60.87881469726564	793.1241455078127	730.5047607421876	-0.05179960653185846	
90	0.89	878.7832641601565	933.5598144531252	-394.929412841797	675.5166625976564	978.2814941406252	-328.0506286621094	672.0312500000001	978.1477050781252	-213.6524658203126	873.7256469726565	939.8813476562502	-139.5591888427735	806.9483642578127	865.4982910156252	-444.9755249023439	805.1077880859377	461.967742919922	-367.7025756835938	788.0375976562502	462.9337768554689	-246.8862915039063	792.5769653320315	399.7109680175782	-365.9276733398438	839.6318969726565	405.254852294922	-298.7404785156251	738.2359008789064	67.67821502685548	-336.4614257812501	737.5383911132814	83.87751770019533	-245.5964965820313	683.6344604492189	24.86056137084962	-302.9516906738282	864.394470214844	18.10486602783203	-230.7217559814454	882.844177246094	32.76267242431641	-288.0800781250001	850.4567871093752	16.11471748352051	-348.0149841308594	793.905700683594	857.1357421875002	-86.90816497802736	938.8770751953127	493.5108337402345	-129.0980072021485	1027.418579101563	474.5071411132814	-246.0430603027344	915.4646606445315	448.0716552734376	-125.2890167236328	975.6992187500002	419.9148254394532	-172.4356994628907	734.8379516601564	162.0059661865235	-142.1959228515625	766.1779174804689	156.4015502929688	-227.8643341064454	673.4024658203126	134.6888885498047	-195.0655059814454	831.695739746094	43.86511230468751	-200.3398132324219	834.8693847656252	60.72565078735353	-145.6438751220703	782.4353027343752	57.88224029541017	-104.1916732788086	743.2284545898439	1433.268310546875	-263.9121093750001	679.7157592773439	1202.081665039063	-293.2786865234376	916.979431152344	1128.139892578125	-272.4885864257813	874.2918701171877	1347.873291015625	-274.2802429199219	679.8174438476564	1232.90087890625	-385.0758666992189	708.6998291015626	1366.417602539063	-387.1236877441407	762.7863159179689	1372.323608398438	-451.2719726562501	819.9793701171877	1382.228393554688	-464.0807189941407	805.4253540039065	1066.578491210938	-538.3071899414064	751.2762451171876	1062.388793945313	-485.4918212890626	767.9993896484376	1039.06591796875	-521.7556762695314	901.0257568359377	847.1875000000002	-465.9580383300782	873.9743652343752	845.2357177734377	-534.5266113281251	932.8360595703127	764.5910034179689	-459.6398925781251	875.4671630859377	775.3555908203127	-545.2601928710939	665.4682006835939	1224.237060546875	-202.6429901123047	701.7539672851564	1346.393310546875	-170.919418334961	741.1505126953126	1346.531616210938	-114.1630020141602	791.298034667969	1352.773803710938	-89.09750366210939	741.9023437500001	1035.567260742188	-26.56249046325684	712.7889404296876	1023.16259765625	-101.6228408813477	709.3523559570314	1004.732238769531	-57.43297958374025	833.6621093750002	807.2979736328127	-68.4422073364258	780.481628417969	801.0693969726565	-10.21050262451172	873.513122558594	729.7891845703126	-60.01482009887697	795.130554199219	730.4536132812501	-0.08641181141138078	
91	0.9	888.0089111328127	933.3823852539065	-395.4695129394532	684.8590698242189	978.3581542968752	-328.0137023925782	681.3137817382814	978.4036254882815	-213.6406707763672	883.5887451171877	940.277770996094	-140.1776428222657	815.5898437500002	865.174987792969	-445.3673095703126	808.7159423828127	461.7557678222657	-367.8660278320313	791.4735107421877	462.4896545410157	-247.0975494384766	795.546081542969	399.6358337402345	-366.1122741699219	842.7342529296877	404.7711181640626	-298.9682922363282	738.6271362304689	67.96057891845705	-336.6015625000001	738.0617065429689	84.43852996826173	-245.6595001220704	683.6738281250001	25.45017242431641	-303.0158996582032	864.5930175781252	18.29097175598145	-230.8097686767579	883.0007934570315	32.76108932495118	-288.0636596679688	850.5487060546877	16.11118507385254	-348.1107177734376	804.1194458007815	857.4519653320315	-86.96274566650392	953.671813964844	495.382537841797	-130.2251434326172	1040.740112304688	476.0721435546876	-246.6983642578126	931.8634033203127	448.5392456054689	-126.5033340454102	992.775085449219	422.8596191406251	-173.7921600341797	764.3076171875001	153.6695556640625	-143.2965850830078	795.8608398437502	149.9651489257813	-229.3243103027344	703.8612060546876	123.4454040527344	-196.0159759521485	867.6409912109377	41.59047317504884	-201.9039154052735	869.7138671875002	58.48583602905275	-147.2094116210938	817.488708496094	52.37428283691408	-105.6802215576172	752.7993164062501	1433.233032226563	-264.7084655761719	689.4303588867189	1202.073608398438	-294.2256469726563	926.5607910156252	1128.201049804688	-272.7957153320313	883.945983886719	1347.889526367188	-274.6904296875001	689.8268432617189	1232.987548828125	-386.2304077148439	718.7155761718751	1366.47509765625	-388.0603027343751	773.3565063476565	1372.297729492188	-451.8791809082032	830.2774658203127	1382.39404296875	-464.516326904297	818.779724121094	1066.915161132813	-539.8601074218751	764.5331420898439	1061.926879882813	-487.2212524414064	781.7602539062502	1038.808715820313	-523.4700317382814	917.725769042969	849.1446533203127	-467.0800781250001	890.685974121094	846.566833496094	-535.6500244140626	951.1477050781252	767.2916259765626	-460.6696166992189	893.5581665039065	776.668884277344	-546.2323608398439	674.8715820312501	1224.1552734375	-203.8636932373047	710.9429931640626	1346.338989257813	-171.9762878417969	750.1635742187501	1346.468627929688	-115.0820999145508	800.108093261719	1352.72998046875	-89.76708984375001	747.8882446289064	1036.008178710938	-27.71669960021973	719.4470825195314	1023.858032226563	-102.9424285888672	715.4238891601564	1005.53515625	-58.67309951782228	837.5769042968752	806.6243896484377	-68.35472869873048	783.6035156250002	801.086853027344	-10.55346298217774	876.2409667968752	728.6007080078126	-59.22463607788087	797.2414550781252	730.3532714843751	-0.1480008363723755	
